<svg width="163" height="52" viewBox="0 0 163 52" fill="none" xmlns="http://www.w3.org/2000/svg">
<rect width="163" height="52" fill="#1E1E1E"/>
<g clip-path="url(#clip0_0_1)">
<rect width="1920" height="1080" transform="translate(-131 -24)" fill="white"/>
<path d="M1676 75H-18V77H1676V75Z" fill="#EEEEEE" mask="url(#path-1-inside-1_0_1)"/>
<path d="M28.7756 9.75643C28.1679 7.71437 26.3819 6.21358 24.261 5.93065C22.1277 5.64771 20.0192 6.63184 18.8905 8.45247C18.7169 8.7354 18.8037 9.10445 19.089 9.27667C19.3742 9.44889 19.7463 9.36278 19.92 9.07984C20.8006 7.66516 22.4502 6.89017 24.1121 7.11159C25.7741 7.33302 27.1632 8.50167 27.6346 10.1009C27.709 10.3346 27.9074 10.4945 28.1307 10.5191C28.2175 10.5314 28.2919 10.5191 28.3787 10.4945C28.6888 10.4084 28.8748 10.0763 28.7756 9.75643Z" fill="#D44EF6"/>
<path d="M31.6032 8.93222C30.6606 5.78302 27.9319 3.47034 24.6452 3.03978C21.3708 2.60923 18.1213 4.12232 16.3725 6.91477C16.1988 7.19771 16.2856 7.56676 16.5709 7.73898C16.8562 7.9112 17.2283 7.82509 17.4019 7.54215C18.9027 5.15565 21.6809 3.85168 24.4963 4.22073C27.3118 4.58977 29.6435 6.58263 30.4497 9.27667C30.5241 9.5104 30.7226 9.67032 30.9458 9.69492C31.0327 9.70722 31.1071 9.69492 31.1939 9.67032C31.5164 9.57191 31.69 9.23976 31.6032 8.93222Z" fill="#D44EF6"/>
<path d="M34.5302 8.13264C33.2403 3.83939 29.5194 0.690191 25.0544 0.0997161C20.5894 -0.490759 16.1615 1.57591 13.7802 5.37709C13.6065 5.66003 13.6934 6.04137 13.9786 6.22589C14.053 6.2751 14.1399 6.2997 14.2267 6.31201C14.4623 6.34891 14.698 6.2382 14.8344 6.02907C16.9553 2.63384 20.9118 0.788607 24.9056 1.31757C28.8993 1.84654 32.2108 4.6636 33.3643 8.48938C33.4635 8.80923 33.8108 8.99375 34.1333 8.89533C34.4309 8.79692 34.617 8.46478 34.5302 8.13264Z" fill="#D44EF6"/>
<path d="M45.3829 30.7921L24.7445 10.3223C23.9507 9.53501 22.6732 9.53501 21.8918 10.3223L19.895 12.3029L18.1214 10.5437C17.3276 9.75644 16.0501 9.75644 15.2687 10.5437L1.32789 24.3707C0.224036 25.4655 0.224036 27.2493 1.32789 28.3318L24.5957 51.4095C25.3894 52.1968 26.6669 52.1968 27.4483 51.4095L45.3829 33.6215C46.1642 32.8342 46.1642 31.5671 45.3829 30.7921ZM4.52783 27.5322C3.87048 28.1842 2.79143 28.1842 2.13408 27.5322C1.47673 26.8802 1.47673 25.81 2.13408 25.158L16.0749 11.331C16.4222 10.9866 16.9803 10.9866 17.3276 11.331L19.1012 13.0902L4.52783 27.5322ZM16.509 36.4385L8.95565 28.9469C8.76961 28.7624 8.76961 28.4794 8.95565 28.2949C9.14169 28.1104 9.42696 28.1104 9.613 28.2949L17.1663 35.7866C17.3524 35.9711 17.3524 36.254 17.1663 36.4385C16.9803 36.6231 16.6826 36.6231 16.509 36.4385ZM18.6547 34.3104L11.1013 26.8187C10.9153 26.6342 10.9153 26.3512 11.1013 26.1667C11.2874 25.9822 11.5727 25.9822 11.7587 26.1667L19.312 33.6584C19.4981 33.8429 19.4981 34.1258 19.312 34.3104C19.126 34.4949 18.8283 34.4949 18.6547 34.3104ZM20.788 32.1945L13.2346 24.6905C13.0486 24.506 13.0486 24.2231 13.2346 24.0386C13.4207 23.854 13.7059 23.854 13.892 24.0386L21.4453 31.5302C21.6314 31.7147 21.6314 31.9977 21.4453 32.1822C21.2593 32.3667 20.974 32.3667 20.788 32.1945ZM22.9337 30.0663L15.3803 22.5747C15.1943 22.3901 15.1943 22.1072 15.3803 21.9227C15.5664 21.7382 15.8516 21.7382 16.0377 21.9227L23.591 29.4143C23.7771 29.5989 23.7771 29.8818 23.591 30.0663C23.405 30.2385 23.1073 30.2385 22.9337 30.0663ZM25.0794 27.9381L17.5136 20.4465C17.3276 20.262 17.3276 19.979 17.5136 19.7945C17.6997 19.61 17.9849 19.61 18.171 19.7945L25.7243 27.2862C25.9104 27.4707 25.9104 27.7536 25.7243 27.9381C25.5383 28.1227 25.253 28.1227 25.0794 27.9381ZM27.2127 25.81L19.6593 18.3183C19.4733 18.1338 19.4733 17.8509 19.6593 17.6663C19.8454 17.4818 20.1306 17.4818 20.3167 17.6663L27.87 25.158C28.0561 25.3425 28.0561 25.6255 27.87 25.81C27.684 25.9945 27.3987 25.9945 27.2127 25.81ZM29.3584 23.6941L21.805 16.2025C21.619 16.0179 21.619 15.735 21.805 15.5505C21.9911 15.366 22.2763 15.366 22.4624 15.5505L30.0157 23.0421C30.2018 23.2266 30.2018 23.5096 30.0157 23.6941C29.8297 23.8663 29.5444 23.8663 29.3584 23.6941ZM26.6049 46.452L19.0392 38.9604C18.8531 38.7758 18.8531 38.4929 19.0392 38.3084C19.2252 38.1238 19.5105 38.1238 19.6965 38.3084L27.2499 45.8C27.4359 45.9845 27.4359 46.2675 27.2499 46.452C27.0762 46.6242 26.7786 46.6242 26.6049 46.452ZM28.7382 44.3238L21.1849 36.8322C20.9988 36.6477 20.9988 36.3647 21.1849 36.1802C21.3709 35.9957 21.6562 35.9957 21.8422 36.1802L29.3956 43.6718C29.5816 43.8564 29.5816 44.1393 29.3956 44.3238C29.2219 44.5084 28.9243 44.5084 28.7382 44.3238ZM30.8839 42.1957L23.3306 34.704C23.1445 34.5195 23.1445 34.2365 23.3306 34.052C23.5166 33.8675 23.8019 33.8675 23.9879 34.052L31.5413 41.5437C31.7273 41.7282 31.7273 42.0111 31.5413 42.1957C31.3552 42.3802 31.07 42.3802 30.8839 42.1957ZM33.0296 40.0798L25.4763 32.5881C25.2902 32.4036 25.2902 32.1207 25.4763 31.9362C25.6623 31.7516 25.9476 31.7516 26.1336 31.9362L33.687 39.4278C33.873 39.6123 33.873 39.8953 33.687 40.0798C33.5009 40.252 33.2033 40.252 33.0296 40.0798ZM36.0435 37.7425C35.8079 37.9762 35.4234 37.9762 35.1877 37.7425L27.8452 30.46C27.6096 30.2262 27.6096 29.8449 27.8452 29.6112L32.087 25.404C32.3226 25.1703 32.7071 25.1703 32.9428 25.404L40.2853 32.6866C40.5209 32.9203 40.5209 33.3016 40.2853 33.5354L36.0435 37.7425Z" fill="#804EF6"/>
<path d="M59.7477 16.2949C60.0048 16.895 60.5342 17.195 61.3358 17.195C62.2433 17.195 62.9693 16.745 63.5138 15.8449C63.8919 15.2298 64.081 14.4498 64.081 13.5047C64.081 12.1095 63.7104 11.0894 62.9693 10.4444C62.4097 9.9643 61.6988 9.72428 60.8367 9.72428C60.64 9.72428 60.4358 9.73928 60.2241 9.76928L58.704 9.99431V23.2032C58.704 23.6082 58.8477 23.9457 59.1351 24.2158C59.4225 24.4858 59.7628 24.6208 60.156 24.6208H60.451V24.8458H53.5539V24.6208H53.8489C54.2421 24.6208 54.5787 24.4858 54.8585 24.2158C55.1383 23.9457 55.2858 23.6082 55.3009 23.2032V11.2094C55.2858 10.8194 55.1685 10.5119 54.9492 10.2868C54.7299 10.0618 54.4085 9.9493 53.985 9.9493C53.8791 9.9493 53.743 9.9568 53.5766 9.9718L53.5312 9.76928C54.8169 9.66427 56.1668 9.48801 57.581 9.24048C58.9952 8.99295 59.9254 8.83918 60.3716 8.77918C60.8178 8.71917 61.2715 8.68917 61.7328 8.68917C62.1941 8.68917 62.75 8.73793 63.4004 8.83544C64.0507 8.93295 64.7162 9.15047 65.3969 9.48801C66.0775 9.82554 66.6296 10.3243 67.0531 10.9844C67.4917 11.7045 67.711 12.5183 67.711 13.4259C67.711 14.3335 67.5446 15.1323 67.2119 15.8224C66.5766 17.1425 65.4876 17.9826 63.9449 18.3427C63.5667 18.4327 63.2075 18.4777 62.8672 18.4777C62.5269 18.4777 62.2055 18.4477 61.903 18.3877C61.2828 18.2977 60.761 18.0876 60.3375 17.7576C59.914 17.4276 59.6493 16.97 59.5435 16.385L59.7477 16.2949ZM78.6011 8.77918C81.3992 8.77918 83.6226 9.51426 85.2712 10.9844C86.9198 12.4546 87.7442 14.4498 87.7442 16.97C87.7442 19.4903 86.9198 21.4855 85.2712 22.9556C83.6226 24.4258 81.3992 25.1609 78.6011 25.1609C75.8029 25.1609 73.5795 24.4258 71.9309 22.9556C70.2823 21.4855 69.4579 19.4903 69.4579 16.97C69.4579 15.3048 69.8323 13.8535 70.581 12.6158C71.3297 11.3782 72.3922 10.4293 73.7686 9.76928C75.145 9.10921 76.7558 8.77918 78.6011 8.77918ZM78.6011 24.2158C80.2648 24.2158 81.5845 23.5669 82.56 22.2693C83.5356 20.9717 84.0234 19.2052 84.0234 16.97C84.0234 15.4999 83.8041 14.2172 83.3654 13.1221C82.9268 12.027 82.2991 11.1869 81.4824 10.6019C80.6656 10.0168 79.7052 9.72428 78.6011 9.72428C76.9373 9.72428 75.6176 10.3731 74.6421 11.6707C73.6665 12.9684 73.1787 14.7348 73.1787 16.97C73.1787 19.2052 73.6665 20.9717 74.6421 22.2693C75.6176 23.5669 76.9373 24.2158 78.6011 24.2158ZM89.6953 22.7531C89.6953 21.673 89.9297 20.7504 90.3986 19.9853H90.6028C90.5877 20.1053 90.5801 20.2253 90.5801 20.3454C90.5801 21.3805 90.9545 22.2843 91.7031 23.0569C92.4518 23.8295 93.4766 24.2158 94.7773 24.2158C95.7907 24.2158 96.581 23.9757 97.1482 23.4957C97.7154 23.0156 97.999 22.4081 97.999 21.673C97.999 20.7879 97.3939 20.0153 96.1839 19.3553L92.2363 16.7675C91.4498 16.3175 90.8864 15.7736 90.5461 15.1361C90.2058 14.4985 90.0356 13.8497 90.0356 13.1896C90.0356 11.7795 90.4856 10.6919 91.3855 9.9268C92.2855 9.16172 93.4387 8.77918 94.8454 8.77918C95.6773 8.77918 96.7058 8.85419 97.9309 9.00421H99.3602L99.0653 12.312H98.8384C98.8384 11.532 98.5472 10.9056 97.9649 10.4331C97.3826 9.96055 96.6074 9.72428 95.6394 9.72428C94.4597 9.72428 93.6051 10.0843 93.0757 10.8044C92.8035 11.1494 92.6674 11.5395 92.6674 11.9745C92.6674 12.6946 93.1967 13.3621 94.2555 13.9772L98.5888 16.7675C99.9501 17.5476 100.631 18.6952 100.631 20.2104C100.631 21.8155 100.082 23.0419 98.9859 23.8895C97.8893 24.7371 96.4335 25.1609 94.6185 25.1609C93.59 25.1609 92.6409 25.0371 91.7712 24.7896C90.9015 24.542 90.2625 24.2083 89.8541 23.7882C89.7482 23.5032 89.6953 23.1582 89.6953 22.7531ZM110.954 10.0168V23.2257C110.969 23.6157 111.116 23.9457 111.396 24.2158C111.676 24.4858 112.012 24.6208 112.406 24.6208H112.678L112.701 24.8458H105.803V24.6208H106.098C106.477 24.6208 106.806 24.4858 107.085 24.2158C107.365 23.9457 107.52 23.6232 107.55 23.2482V10.0168H104.488C103.792 10.0318 103.24 10.2493 102.831 10.6694C102.423 11.0894 102.219 11.637 102.219 12.312V12.5821H101.992V8.66667C102.204 8.75668 102.586 8.84668 103.138 8.93669C103.69 9.0267 104.2 9.07171 104.669 9.07171H113.812C114.553 9.05671 115.158 8.9967 115.627 8.89169C116.096 8.78668 116.383 8.71168 116.489 8.66667V12.5821H116.262V12.312C116.262 11.637 116.058 11.0894 115.65 10.6694C115.242 10.2493 114.689 10.0318 113.994 10.0168H110.954ZM115.695 18.2751L115.877 17.5326H122.683L122.865 18.2751L122.683 19.0402H115.877L115.695 18.2751ZM124.838 24.6208C125.232 24.6208 125.568 24.482 125.848 24.2045C126.128 23.927 126.275 23.5932 126.29 23.2032V10.7144C126.275 10.3243 126.128 9.99431 125.848 9.72428C125.568 9.45425 125.232 9.31924 124.838 9.31924H124.543V9.09421H131.44L131.418 9.31924H131.146C130.752 9.31924 130.412 9.45425 130.125 9.72428C129.837 9.99431 129.694 10.3243 129.694 10.7144V23.2032C129.694 23.5932 129.837 23.927 130.125 24.2045C130.412 24.482 130.752 24.6208 131.146 24.6208H131.418L131.44 24.8458H124.543V24.6208H124.838ZM138.451 10.0618V16.61H141.446C142.005 16.595 142.467 16.4075 142.83 16.0474C143.193 15.6874 143.374 15.2298 143.374 14.6748V14.4723H143.601V19.6703H143.374V19.4903C143.374 18.9352 143.196 18.4777 142.841 18.1176C142.486 17.7576 142.028 17.5701 141.468 17.5551H138.451V23.2032C138.451 23.7582 138.693 24.1708 139.177 24.4408C139.404 24.5608 139.646 24.6208 139.903 24.6208H140.175L140.198 24.8458H133.301V24.6208H133.596C133.989 24.6208 134.326 24.482 134.605 24.2045C134.885 23.927 135.033 23.5932 135.048 23.2032V10.6694C135.018 10.2943 134.863 9.97555 134.583 9.71303C134.303 9.4505 133.974 9.31924 133.596 9.31924H133.301V9.09421H141.99C142.731 9.09421 143.344 9.03795 143.828 8.92544C144.312 8.81293 144.607 8.73417 144.713 8.68917V12.4921H144.486V12.267C144.486 11.607 144.293 11.0782 143.907 10.6806C143.522 10.2831 142.996 10.0768 142.331 10.0618H138.451ZM162.5 9.31924H162.182C161.728 9.31924 161.297 9.44675 160.889 9.70177C160.481 9.9568 160.155 10.2643 159.913 10.6244L155.444 17.6901V23.2032C155.444 23.5932 155.588 23.927 155.875 24.2045C156.162 24.482 156.503 24.6208 156.896 24.6208H157.168L157.191 24.8458H150.294V24.6208H150.589C150.982 24.6208 151.319 24.4858 151.598 24.2158C151.878 23.9457 152.026 23.6157 152.041 23.2257V17.6676L147.707 10.6019C147.481 10.2418 147.159 9.93805 146.743 9.69052C146.327 9.443 145.9 9.31924 145.461 9.31924H145.144V9.09421H152.653V9.31924H152.358C152.026 9.31924 151.769 9.46925 151.587 9.76928C151.496 9.9343 151.451 10.0956 151.451 10.2531C151.451 10.4106 151.489 10.5644 151.564 10.7144L154.809 16.565L158.166 10.7144C158.257 10.5644 158.303 10.4106 158.303 10.2531C158.303 10.0956 158.25 9.9418 158.144 9.79178C157.962 9.47675 157.705 9.31924 157.372 9.31924H157.1V9.09421H162.5V9.31924Z" fill="#D44EF6"/>
<path d="M54.4841 36.2526C54.4035 36.6127 54.3631 36.9727 54.3631 37.3327V38.8779L56.0723 37.1077C56.2638 36.9077 56.4907 36.6227 56.7529 36.2526H57.7209C57.4184 36.4526 57.1411 36.6877 56.889 36.9577L54.9984 38.9079L57.2671 41.0831C57.5293 41.3331 57.8217 41.5582 58.1444 41.7582H56.8134C56.5916 41.4382 56.3496 41.1581 56.0874 40.9181L54.5144 39.4179L54.3631 39.568V40.6631C54.3631 41.0531 54.4035 41.4182 54.4841 41.7582H53.5312C53.5918 41.3982 53.622 41.0331 53.622 40.6631V37.3327C53.622 36.9827 53.5918 36.6227 53.5312 36.2526H54.4841ZM58.7796 41.7582C58.8401 41.3982 58.8704 41.0331 58.8704 40.6631V38.9529C58.8704 38.5929 58.8401 38.2278 58.7796 37.8578L59.7325 37.6778C59.7023 37.7778 59.6771 37.9378 59.6569 38.1578C59.9191 37.8378 60.3123 37.6778 60.8367 37.6778C61.361 37.6778 61.7795 37.8678 62.092 38.2478C62.324 38.5279 62.4399 38.9029 62.4399 39.3729V40.6631C62.4399 41.0531 62.4752 41.4182 62.5458 41.7582H61.5929C61.6635 41.3982 61.6988 41.0331 61.6988 40.6631V39.3729C61.6988 39.0029 61.6433 38.7429 61.5324 38.5929C61.3509 38.2828 61.0585 38.1278 60.6552 38.1278C60.2518 38.1278 59.9594 38.2828 59.7779 38.5929C59.667 38.7429 59.6115 39.0029 59.6115 39.3729V40.6631C59.6115 41.0531 59.6519 41.4182 59.7325 41.7582H58.7796ZM66.3573 38.5779C66.1355 38.2778 65.8506 38.1278 65.5027 38.1278C65.1549 38.1278 64.8801 38.2778 64.6784 38.5779C64.4566 38.8379 64.3457 39.2279 64.3457 39.748C64.3457 40.268 64.4566 40.6631 64.6784 40.9331C64.8801 41.2231 65.1549 41.3682 65.5027 41.3682C65.8506 41.3682 66.133 41.2281 66.3497 40.9481C66.5665 40.6681 66.6749 40.268 66.6749 39.748C66.6749 39.2279 66.5691 38.8379 66.3573 38.5779ZM66.9623 41.1731C66.5993 41.6132 66.1178 41.8332 65.5179 41.8332C64.9179 41.8332 64.4389 41.6182 64.081 41.1881C63.723 40.7581 63.544 40.2805 63.544 39.7555C63.544 39.2304 63.7155 38.7529 64.0583 38.3228C64.4213 37.8928 64.9053 37.6778 65.5103 37.6778C66.1153 37.6778 66.5968 37.8903 66.9548 38.3153C67.3127 38.7404 67.4917 39.2254 67.4917 39.7705C67.4917 40.3155 67.3152 40.7831 66.9623 41.1731ZM69.2916 41.7582C69.2412 41.3682 69.1554 41.0081 69.0344 40.6781L68.3387 38.7429C68.2479 38.4729 68.0917 38.1378 67.8698 37.7378H68.8378C68.8782 38.0578 68.9639 38.4178 69.0949 38.8179L69.8361 40.8431L70.5167 38.8179C70.6276 38.4579 70.7133 38.0978 70.7738 37.7378H71.515C71.5452 38.0578 71.6309 38.4178 71.7721 38.8179L72.4981 40.8431L73.1787 38.8179C73.2997 38.4579 73.3905 38.0978 73.451 37.7378H74.2072C73.9753 38.1478 73.819 38.4829 73.7383 38.7429L73.0426 40.6781C72.9216 41.0081 72.8359 41.3682 72.7855 41.7582H71.9687C71.9183 41.3682 71.8326 41.0081 71.7116 40.6781L71.031 38.8029L70.3503 40.6781C70.2293 41.0381 70.1487 41.3982 70.1083 41.7582H69.2916ZM74.8425 41.7582C74.903 41.3982 74.9332 41.0331 74.9332 40.6631V37.4527C74.9332 37.1027 74.903 36.7377 74.8425 36.3576L75.7953 36.1776C75.7147 36.5077 75.6744 36.8727 75.6744 37.2727V40.6631C75.6744 41.0531 75.7147 41.4182 75.7953 41.7582H74.8425ZM79.6069 38.5779C79.385 38.2778 79.1002 38.1278 78.7523 38.1278C78.4044 38.1278 78.1297 38.2778 77.928 38.5779C77.7062 38.8379 77.5952 39.2279 77.5952 39.748C77.5952 40.268 77.7062 40.6631 77.928 40.9331C78.1297 41.2231 78.4044 41.3682 78.7523 41.3682C79.1002 41.3682 79.3825 41.2281 79.5993 40.9481C79.8161 40.6681 79.9245 40.268 79.9245 39.748C79.9245 39.2279 79.8186 38.8379 79.6069 38.5779ZM80.2119 41.1731C79.8489 41.6132 79.3674 41.8332 78.7674 41.8332C78.1675 41.8332 77.6885 41.6182 77.3305 41.1881C76.9726 40.7581 76.7936 40.2805 76.7936 39.7555C76.7936 39.2304 76.965 38.7529 77.3079 38.3228C77.6709 37.8928 78.1549 37.6778 78.7599 37.6778C79.3649 37.6778 79.8463 37.8903 80.2043 38.3153C80.5623 38.7404 80.7412 39.2254 80.7412 39.7705C80.7412 40.3155 80.5648 40.7831 80.2119 41.1731ZM84.3108 38.5779C84.0889 38.2778 83.8041 38.1278 83.4562 38.1278C83.1083 38.1278 82.8335 38.2778 82.6319 38.5779C82.41 38.8379 82.2991 39.2279 82.2991 39.748C82.2991 40.268 82.41 40.6631 82.6319 40.9331C82.8335 41.2231 83.1083 41.3682 83.4562 41.3682C83.8041 41.3682 84.0864 41.2281 84.3032 40.9481C84.52 40.6681 84.6284 40.268 84.6284 39.748C84.6284 39.2279 84.5225 38.8379 84.3108 38.5779ZM85.3695 40.6631C85.3695 40.9731 85.4048 41.3381 85.4754 41.7582H84.5225C84.5427 41.6982 84.5553 41.6332 84.5603 41.5632C84.5654 41.4932 84.5729 41.4232 84.583 41.3532C84.3007 41.6732 83.9276 41.8332 83.4638 41.8332C82.8688 41.8332 82.3924 41.6182 82.0344 41.1881C81.6765 40.7581 81.4975 40.2805 81.4975 39.7555C81.4975 39.2304 81.6689 38.7529 82.0118 38.3228C82.3748 37.8928 82.8335 37.6778 83.3881 37.6778C83.9427 37.6778 84.3561 37.8478 84.6284 38.1878V37.4527C84.6284 37.0627 84.5931 36.6977 84.5225 36.3576L85.4754 36.1776C85.4048 36.5977 85.3695 36.9627 85.3695 37.2727V40.6631ZM89.302 38.5779C89.0802 38.2778 88.7953 38.1278 88.4475 38.1278C88.0996 38.1278 87.8248 38.2778 87.6232 38.5779C87.4013 38.8379 87.2904 39.2279 87.2904 39.748C87.2904 40.268 87.4013 40.6631 87.6232 40.9331C87.8248 41.2231 88.0996 41.3682 88.4475 41.3682C88.7953 41.3682 89.0777 41.2281 89.2945 40.9481C89.5113 40.6681 89.6197 40.268 89.6197 39.748C89.6197 39.2279 89.5138 38.8379 89.302 38.5779ZM90.4667 37.6778C90.3961 38.0978 90.3608 38.4629 90.3608 38.7729V41.2631C90.3608 41.8632 90.2095 42.3332 89.907 42.6733C89.544 43.1133 89.0525 43.3334 88.4323 43.3334C87.8122 43.3334 87.3257 43.1983 86.9728 42.9283V41.9832H87.003C87.0736 42.2132 87.1845 42.3883 87.3358 42.5083C87.5879 42.7483 87.9282 42.8683 88.3567 42.8683C88.7853 42.8683 89.1004 42.7333 89.302 42.4633C89.5138 42.1632 89.6197 41.7782 89.6197 41.3081C89.3474 41.6582 88.9365 41.8332 88.387 41.8332C87.8374 41.8332 87.3837 41.6182 87.0257 41.1881C86.6678 40.7581 86.4888 40.2805 86.4888 39.7555C86.4888 39.2304 86.6602 38.7529 87.003 38.3228C87.366 37.8928 87.8248 37.6778 88.3794 37.6778C88.934 37.6778 89.3272 37.8278 89.5592 38.1278C89.5592 38.0378 89.544 37.9478 89.5138 37.8578L90.4667 37.6778ZM95.0496 40.4681V41.1731C94.6765 41.6132 94.1673 41.8332 93.5219 41.8332C92.8766 41.8332 92.3749 41.6182 92.017 41.1881C91.659 40.7581 91.48 40.2805 91.48 39.7555C91.48 39.2304 91.6515 38.7529 91.9943 38.3228C92.3573 37.8928 92.8463 37.6778 93.4614 37.6778C94.0765 37.6778 94.5656 37.9178 94.9286 38.3978C95.1605 38.7479 95.2764 39.1979 95.2764 39.748L95.2613 39.973H92.2817C92.3119 40.4031 92.4228 40.7231 92.6144 40.9331C92.8463 41.2231 93.1791 41.3682 93.6127 41.3682C94.1975 41.3682 94.6614 41.0681 95.0042 40.4681H95.0496ZM94.5202 39.523C94.5202 39.1029 94.4395 38.7879 94.2782 38.5779C94.0463 38.2778 93.7614 38.1278 93.4236 38.1278C93.0858 38.1278 92.8161 38.2778 92.6144 38.5779C92.4228 38.7979 92.3119 39.1129 92.2817 39.523H94.5202ZM99.2392 41.7582C99.2997 41.3982 99.33 41.0331 99.33 40.6631V38.9529C99.33 38.5929 99.2997 38.2278 99.2392 37.8578L100.192 37.6778C100.111 38.0078 100.071 38.3728 100.071 38.7729V40.6631C100.071 41.0531 100.111 41.4182 100.192 41.7582H99.2392ZM99.7081 37.1527C99.577 37.1527 99.4661 37.1052 99.3753 37.0102C99.2846 36.9152 99.2392 36.8027 99.2392 36.6727C99.2392 36.5427 99.2795 36.4226 99.3602 36.3126C99.4711 36.2226 99.5871 36.1776 99.7081 36.1776C99.8291 36.1776 99.94 36.2226 100.041 36.3126C100.142 36.4026 100.192 36.5152 100.192 36.6502C100.192 36.7852 100.144 36.9027 100.048 37.0027C99.9526 37.1027 99.8392 37.1527 99.7081 37.1527ZM101.447 41.7582C101.508 41.3982 101.538 41.0331 101.538 40.6631V38.9529C101.538 38.5929 101.508 38.2278 101.447 37.8578L102.4 37.6778C102.37 37.7778 102.345 37.9378 102.325 38.1578C102.587 37.8378 102.98 37.6778 103.504 37.6778C104.029 37.6778 104.447 37.8678 104.76 38.2478C104.992 38.5279 105.108 38.9029 105.108 39.3729V40.6631C105.108 41.0531 105.143 41.4182 105.214 41.7582H104.261C104.331 41.3982 104.367 41.0331 104.367 40.6631V39.3729C104.367 39.0029 104.311 38.7429 104.2 38.5929C104.019 38.2828 103.726 38.1278 103.323 38.1278C102.92 38.1278 102.627 38.2828 102.446 38.5929C102.335 38.7429 102.279 39.0029 102.279 39.3729V40.6631C102.279 41.0531 102.32 41.4182 102.4 41.7582H101.447ZM109.418 37.8578C109.469 37.8478 109.539 37.8303 109.63 37.8053C109.721 37.7803 109.827 37.7603 109.948 37.7453C110.069 37.7303 110.21 37.7078 110.371 37.6778C110.291 38.0078 110.25 38.3728 110.25 38.7729V40.123C110.25 40.4831 110.306 40.7481 110.417 40.9181C110.608 41.2181 110.901 41.3682 111.294 41.3682C111.687 41.3682 111.98 41.2181 112.171 40.9181C112.282 40.7481 112.338 40.4831 112.338 40.123V38.9529C112.338 38.5929 112.302 38.2278 112.232 37.8578L113.185 37.6778C113.114 38.0078 113.079 38.3728 113.079 38.7729V41.2631C113.079 41.8432 112.927 42.3132 112.625 42.6733C112.242 43.1133 111.77 43.3334 111.211 43.3334C110.651 43.3334 110.19 43.1983 109.827 42.9283V41.9832H109.857C109.958 42.2332 110.069 42.4083 110.19 42.5083C110.462 42.7483 110.785 42.8683 111.158 42.8683C111.531 42.8683 111.813 42.7333 112.005 42.4633C112.227 42.1832 112.338 41.7982 112.338 41.3081C112.055 41.6582 111.642 41.8332 111.097 41.8332C110.553 41.8332 110.139 41.6382 109.857 41.2481C109.625 40.9281 109.509 40.5531 109.509 40.123V38.9529C109.509 38.5929 109.479 38.2278 109.418 37.8578ZM116.996 38.5779C116.774 38.2778 116.489 38.1278 116.141 38.1278C115.794 38.1278 115.519 38.2778 115.317 38.5779C115.095 38.8379 114.984 39.2279 114.984 39.748C114.984 40.268 115.095 40.6631 115.317 40.9331C115.519 41.2231 115.794 41.3682 116.141 41.3682C116.489 41.3682 116.772 41.2281 116.988 40.9481C117.205 40.6681 117.314 40.268 117.314 39.748C117.314 39.2279 117.208 38.8379 116.996 38.5779ZM117.601 41.1731C117.238 41.6132 116.757 41.8332 116.157 41.8332C115.557 41.8332 115.078 41.6182 114.72 41.1881C114.362 40.7581 114.183 40.2805 114.183 39.7555C114.183 39.2304 114.354 38.7529 114.697 38.3228C115.06 37.8928 115.544 37.6778 116.149 37.6778C116.754 37.6778 117.236 37.8903 117.593 38.3153C117.951 38.7404 118.13 39.2254 118.13 39.7705C118.13 40.3155 117.954 40.7831 117.601 41.1731ZM122.804 40.6631C122.804 41.0931 122.839 41.4582 122.91 41.7582H121.957C121.967 41.6982 121.975 41.6332 121.98 41.5632C121.985 41.4932 121.997 41.4232 122.018 41.3532C121.745 41.6732 121.347 41.8332 120.823 41.8332C120.298 41.8332 119.885 41.6382 119.582 41.2481C119.351 40.9581 119.235 40.5831 119.235 40.123V38.9529C119.235 38.5929 119.204 38.2278 119.144 37.8578L120.097 37.6778C120.016 38.0078 119.976 38.3728 119.976 38.7729V40.123C119.976 40.4831 120.031 40.7481 120.142 40.9181C120.334 41.2181 120.626 41.3682 121.019 41.3682C121.715 41.3682 122.063 40.9531 122.063 40.123V38.9529C122.063 38.5929 122.028 38.2278 121.957 37.8578L122.91 37.6778C122.839 38.0078 122.804 38.3728 122.804 38.7729V40.6631ZM124.165 41.7582C124.226 41.3982 124.256 41.0331 124.256 40.6631V38.9529C124.256 38.5929 124.226 38.2278 124.165 37.8578L125.118 37.6778C125.088 37.7778 125.063 37.9378 125.043 38.1578C125.305 37.8378 125.632 37.6778 126.026 37.6778C126.248 37.6778 126.459 37.7278 126.661 37.8278V38.6529H126.631C126.429 38.3028 126.179 38.1278 125.882 38.1278C125.585 38.1278 125.345 38.2828 125.164 38.5929C125.053 38.7429 124.997 39.0029 124.997 39.3729V40.6631C124.997 41.0531 125.038 41.4182 125.118 41.7582H124.165ZM132.091 38.6379C131.94 38.2978 131.713 38.1278 131.41 38.1278C131.279 38.1278 131.158 38.1603 131.047 38.2253C130.936 38.2903 130.881 38.4053 130.881 38.5704C130.881 38.7354 131.007 38.8929 131.259 39.0429L131.94 39.448C132.403 39.718 132.635 40.0655 132.635 40.4906C132.635 40.9156 132.489 41.2456 132.197 41.4807C131.904 41.7157 131.582 41.8332 131.229 41.8332C130.805 41.8132 130.543 41.7732 130.442 41.7132C130.22 41.5732 130.064 41.4582 129.973 41.3682V40.4081H130.004C130.236 41.0481 130.639 41.3682 131.214 41.3682C131.435 41.3682 131.617 41.2981 131.758 41.1581C131.899 41.0181 131.97 40.8356 131.97 40.6106C131.97 40.3856 131.844 40.198 131.592 40.048L131.002 39.703C130.498 39.4029 130.246 39.0429 130.246 38.6229C130.246 38.3328 130.367 38.0878 130.609 37.8878C130.79 37.7478 131.032 37.6778 131.335 37.6778C131.637 37.6778 131.899 37.7478 132.121 37.8878V38.6379H132.091ZM136.719 40.4681V41.1731C136.356 41.6132 135.875 41.8332 135.275 41.8332C134.675 41.8332 134.196 41.6232 133.838 41.2031C133.48 40.7831 133.301 40.3055 133.301 39.7705C133.301 39.2354 133.472 38.7529 133.815 38.3228C134.178 37.8928 134.662 37.6778 135.267 37.6778C135.741 37.6778 136.149 37.8178 136.492 38.0978V39.0729H136.462C136.381 38.8829 136.275 38.7179 136.144 38.5779C135.912 38.2778 135.625 38.1278 135.282 38.1278C134.939 38.1278 134.657 38.2778 134.435 38.5779C134.213 38.8379 134.102 39.2279 134.102 39.748C134.102 40.268 134.213 40.6631 134.435 40.9331C134.637 41.2231 134.914 41.3682 135.267 41.3682C135.862 41.3682 136.336 41.0681 136.689 40.4681H136.719ZM137.808 41.7582C137.869 41.3982 137.899 41.0331 137.899 40.6631V38.9529C137.899 38.5929 137.869 38.2278 137.808 37.8578L138.761 37.6778C138.731 37.7778 138.706 37.9378 138.685 38.1578C138.948 37.8378 139.275 37.6778 139.669 37.6778C139.89 37.6778 140.102 37.7278 140.304 37.8278V38.6529H140.274C140.072 38.3028 139.822 38.1278 139.525 38.1278C139.227 38.1278 138.988 38.2828 138.806 38.5929C138.695 38.7429 138.64 39.0029 138.64 39.3729V40.6631C138.64 41.0531 138.68 41.4182 138.761 41.7582H137.808ZM144.327 40.4681V41.1731C143.954 41.6132 143.445 41.8332 142.799 41.8332C142.154 41.8332 141.652 41.6182 141.294 41.1881C140.936 40.7581 140.758 40.2805 140.758 39.7555C140.758 39.2304 140.929 38.7529 141.272 38.3228C141.635 37.8928 142.124 37.6778 142.739 37.6778C143.354 37.6778 143.843 37.9178 144.206 38.3978C144.438 38.7479 144.554 39.1979 144.554 39.748L144.539 39.973H141.559C141.589 40.4031 141.7 40.7231 141.892 40.9331C142.124 41.2231 142.457 41.3682 142.89 41.3682C143.475 41.3682 143.939 41.0681 144.282 40.4681H144.327ZM143.798 39.523C143.798 39.1029 143.717 38.7879 143.556 38.5779C143.324 38.2778 143.039 38.1278 142.701 38.1278C142.363 38.1278 142.094 38.2778 141.892 38.5779C141.7 38.7979 141.589 39.1129 141.559 39.523H143.798ZM148.88 40.4681V41.1731C148.507 41.6132 147.997 41.8332 147.352 41.8332C146.707 41.8332 146.205 41.6182 145.847 41.1881C145.489 40.7581 145.31 40.2805 145.31 39.7555C145.31 39.2304 145.482 38.7529 145.824 38.3228C146.187 37.8928 146.676 37.6778 147.292 37.6778C147.907 37.6778 148.396 37.9178 148.759 38.3978C148.991 38.7479 149.107 39.1979 149.107 39.748L149.091 39.973H146.112C146.142 40.4031 146.253 40.7231 146.445 40.9331C146.676 41.2231 147.009 41.3682 147.443 41.3682C148.028 41.3682 148.491 41.0681 148.834 40.4681H148.88ZM148.35 39.523C148.35 39.1029 148.27 38.7879 148.108 38.5779C147.876 38.2778 147.592 38.1278 147.254 38.1278C146.916 38.1278 146.646 38.2778 146.445 38.5779C146.253 38.7979 146.142 39.1129 146.112 39.523H148.35ZM150.12 41.7582C150.18 41.3982 150.211 41.0331 150.211 40.6631V38.9529C150.211 38.5929 150.18 38.2278 150.12 37.8578L151.073 37.6778C151.043 37.7778 151.017 37.9378 150.997 38.1578C151.259 37.8378 151.653 37.6778 152.177 37.6778C152.701 37.6778 153.12 37.8678 153.432 38.2478C153.664 38.5279 153.78 38.9029 153.78 39.3729V40.6631C153.78 41.0531 153.815 41.4182 153.886 41.7582H152.933C153.004 41.3982 153.039 41.0331 153.039 40.6631V39.3729C153.039 39.0029 152.984 38.7429 152.873 38.5929C152.691 38.2828 152.399 38.1278 151.995 38.1278C151.592 38.1278 151.3 38.2828 151.118 38.5929C151.007 38.7429 150.952 39.0029 150.952 39.3729V40.6631C150.952 41.0531 150.992 41.4182 151.073 41.7582H150.12Z" fill="#804EF6"/>
</g>
<defs>
<clipPath id="clip0_0_1">
<rect width="1920" height="1080" fill="white" transform="translate(-131 -24)"/>
</clipPath>
</defs>
</svg>
